# xmcd
#
# Track frame offsets: 
#        150
#        8987
#        15634
#        30749
#        39147
#        61421
#        74947
#        81949
#        90056
#        100885
#        109307
#        121153
#        134133
#        147633
#        160208
#        172021
#        182738
#        194715
#        217370
#        233111
#        243156
#        253075
#
# Disc length: 3514 seconds
#
# Revision: 0
# Processed by: cddbd v1.5.2PL0 Copyright (c) Steve Scherf et al.
# Submitted via: ExactAudioCopy v0.99pb3
#
DISCID=470db816
DTITLE=Rozni - Piesni wojenne i partyzanckie
DYEAR=1900
DGENRE=Other
TTITLE0=Hej, ch³opcy! Bagnet na bron!
TTITLE1=My ze spalonych wsi
TTITLE2=Palacyk Michla
TTITLE3=Oka
TTITLE4=Pierwszy Sierpien dzien krwawy
TTITLE5=Zolnierski trakt
TTITLE6=Marsz Mokotowa
TTITLE7=Siekiera, motyka
TTITLE8=Serce w plecaku
TTITLE9=Gdy w noc wrzesniowa
TTITLE10=Natalia
TTITLE11=Warszawskie dzieci
TTITLE12=Karpacka brygada
TTITLE13=A jesli bedzie wiosna
TTITLE14=Dzis do Ciebie przyjsc nie moge
TTITLE15=Szturmowka
TTITLE16=Teraz jest wojna
TTITLE17=Deszcz, jesienny deszcz
TTITLE18=Zoska
TTITLE19=Rozszumialy sie wierzby placzace
TTITLE20=Marsz Zoliborza
TTITLE21=Jedrusiowa dola
EXTD=
EXTT0=
EXTT1=
EXTT2=
EXTT3=
EXTT4=
EXTT5=
EXTT6=
EXTT7=
EXTT8=
EXTT9=
EXTT10=
EXTT11=
EXTT12=
EXTT13=
EXTT14=
EXTT15=
EXTT16=
EXTT17=
EXTT18=
EXTT19=
EXTT20=
EXTT21=
PLAYORDER=
